<svg version="1.1" id="Layer_1" xmlns="http://www.w3.org/2000/svg" xmlns:xlink="http://www.w3.org/1999/xlink" x="0px" y="0px"
	 width="100%" viewBox="0 0 200 200" enable-background="new 0 0 200 200" xml:space="preserve">
<path fill="#000000" opacity="1.000000" stroke="none" 
	d="
M120.000000,201.000000 
	C81.190636,201.000000 42.881195,200.968369 4.572079,201.065872 
	C1.797696,201.072952 0.894980,200.766983 0.901492,197.576096 
	C1.033043,133.116684 1.025398,68.656906 0.916463,4.197427 
	C0.911597,1.318277 1.633832,0.926727 4.298746,0.930416 
	C68.758286,1.019645 133.218018,1.018304 197.677567,0.933995 
	C200.293381,0.930574 201.091583,1.243683 201.086456,4.173738 
	C200.973328,68.799774 200.979980,133.426071 201.072159,198.052170 
	C201.075897,200.674973 200.327438,201.063263 197.951294,201.055145 
	C172.134430,200.966934 146.317154,201.000000 120.000000,201.000000 
z"/>
<path fill="#FF0101" opacity="1.000000" stroke="none" 
	d="
M94.643730,7.714607 
	C98.668617,5.358344 102.120697,4.969484 106.374535,6.859437 
	C119.289543,12.597479 132.423721,17.847441 145.528671,23.148743 
	C148.485092,24.344690 148.843262,26.065294 147.750717,28.707928 
	C146.884155,30.804005 146.174118,32.966473 145.435989,35.113689 
	C141.628860,46.188622 141.649445,46.236774 130.763489,49.960747 
	C111.389633,56.588345 91.968170,63.078213 72.633575,69.817757 
	C69.366219,70.956673 68.103111,70.465446 66.972618,67.084923 
	C62.546482,53.849487 57.766983,40.732441 53.176514,27.551302 
	C52.851139,26.617012 51.642235,25.500250 53.761185,24.640976 
	C67.308914,19.147120 80.797340,13.507058 94.643730,7.714607 
z"/>
<path fill="#FF0202" opacity="1.000000" stroke="none" 
	d="
M187.289398,46.632683 
	C185.761993,77.842209 177.677353,106.816513 163.454422,134.141541 
	C161.865814,137.193588 160.388885,138.506516 156.558777,137.166809 
	C150.299606,134.977448 143.764023,133.535492 137.285522,132.035294 
	C134.358185,131.357437 134.382431,129.733841 135.102600,127.562706 
	C142.059402,106.589760 149.071503,85.634949 155.945526,64.634941 
	C157.130005,61.016335 159.192383,58.946590 162.903030,57.880154 
	C168.830185,56.176693 174.618378,53.988934 180.462250,51.996944 
	C182.098618,51.439159 184.160843,51.323505 183.898163,48.383205 
	C183.172653,45.638748 183.610870,43.236965 183.686340,40.429306 
	C185.126205,38.660931 185.934158,40.262329 187.126556,40.800777 
	C187.668533,42.785564 187.464981,44.512436 187.289398,46.632683 
z"/>
<path fill="#FF0202" opacity="1.000000" stroke="none" 
	d="
M129.956940,82.900314 
	C125.620850,96.254829 121.220772,109.173523 117.118347,122.186058 
	C116.217163,125.044525 115.427574,126.045807 112.260765,125.088905 
	C104.184761,122.648621 95.989647,120.601845 87.838234,118.412331 
	C86.241440,117.983421 85.268822,117.365456 84.646881,115.465286 
	C81.920616,107.135925 78.947556,98.880463 75.790741,90.703697 
	C74.991203,88.632736 75.133644,87.716805 77.191048,87.025177 
	C95.965752,80.713737 114.731422,74.375450 133.508057,68.069771 
	C133.762436,67.984344 134.124359,68.219223 134.668533,68.368256 
	C133.107544,73.092827 131.553772,77.795532 129.956940,82.900314 
z"/>
<path fill="#FF0505" opacity="1.000000" stroke="none" 
	d="
M90.560333,188.563232 
	C89.903236,189.661621 89.418571,189.734314 88.535355,189.076447 
	C66.614281,172.748413 49.488892,152.421417 37.454075,127.860954 
	C36.799412,126.524925 34.942810,124.967125 36.509563,123.472900 
	C37.623135,122.410881 39.211895,123.921021 40.525112,124.274025 
	C49.609406,126.715881 58.595928,129.525986 67.698807,131.890793 
	C69.813293,132.440094 70.458542,133.194611 71.169563,135.202682 
	C76.967392,151.577057 83.003784,167.866989 88.980301,184.177948 
	C89.480934,185.544281 90.074303,186.876663 90.560333,188.563232 
z"/>
<path fill="#FF0202" opacity="1.000000" stroke="none" 
	d="
M16.763830,40.563435 
	C21.289886,38.293133 25.611277,36.419147 29.933163,34.546310 
	C32.815216,33.297405 34.875408,33.716137 36.038765,37.037209 
	C40.499470,49.771320 45.066528,62.468216 49.610573,75.173042 
	C50.113148,76.578217 50.300476,77.449776 48.354977,78.074638 
	C40.464378,80.608978 32.631729,83.329552 24.824131,86.111702 
	C23.214304,86.685356 22.324842,86.546402 22.046682,84.822655 
	C20.121256,72.890778 17.211096,61.097191 16.928947,48.481422 
	C16.123867,45.707020 16.620392,43.321049 16.763830,40.563435 
z"/>
<path fill="#FF0707" opacity="1.000000" stroke="none" 
	d="
M128.266464,178.233734 
	C125.167854,180.988113 122.295403,183.460388 119.498123,186.014984 
	C118.541428,186.888672 117.493973,187.471924 116.460083,186.617645 
	C115.610466,185.915634 116.184662,184.885773 116.513824,183.901794 
	C120.074501,173.258118 123.526085,162.577957 127.077736,151.931198 
	C127.803032,149.756989 128.597351,148.469131 131.701614,149.703156 
	C136.646118,151.668747 141.971725,152.711166 147.180603,153.958466 
	C149.210175,154.444473 150.691269,154.670197 148.557251,156.950150 
	C141.939987,164.019913 136.675522,172.376465 128.266464,178.233734 
z"/>
<path fill="#FF0606" opacity="1.000000" stroke="none" 
	d="
M55.676865,95.047577 
	C59.112659,99.193527 59.911587,104.252388 61.865742,108.820953 
	C62.387394,110.040512 61.712097,111.410866 60.152233,110.891899 
	C49.553612,107.365700 38.301048,106.577370 27.713728,103.042442 
	C27.591215,103.001541 27.530493,102.775581 27.201000,102.262100 
	C36.642086,99.824081 45.954388,97.419319 55.676865,95.047577 
z"/>
<path fill="#FF0808" opacity="1.000000" stroke="none" 
	d="
M109.169243,143.721497 
	C108.762085,151.426041 106.113235,158.408371 104.515320,165.620331 
	C104.098846,167.500031 105.147705,170.112625 102.525711,171.625687 
	C99.650383,162.052673 97.680695,152.298569 94.150406,143.007370 
	C93.888908,142.319138 92.688545,141.069504 94.087151,140.022827 
	C95.205238,139.186066 96.156410,139.726212 97.239616,140.055084 
	C101.108353,141.229691 105.004944,142.312576 109.169243,143.721497 
z"/>
<path fill="#FF2020" opacity="1.000000" stroke="none" 
	d="
M166.021179,34.016735 
	C168.680130,30.421747 170.358994,35.355682 172.782486,34.284634 
	C170.854340,36.232933 168.485855,37.408276 166.067566,37.253002 
	C164.560684,37.156250 166.340195,35.375938 166.021179,34.016735 
z"/>
<path fill="#FFA3A3" opacity="1.000000" stroke="none" 
	d="
M16.592205,40.305672 
	C16.990166,42.501015 17.012047,44.835396 16.956320,47.603149 
	C14.981374,45.652237 16.364412,42.981651 16.592205,40.305672 
z"/>
<path fill="#FF8080" opacity="1.000000" stroke="none" 
	d="
M183.492111,40.215378 
	C183.869156,42.373943 183.909241,44.744667 183.889191,47.556084 
	C182.239014,45.595264 183.193848,42.967171 183.492111,40.215378 
z"/>
<path fill="#FFB4B4" opacity="1.000000" stroke="none" 
	d="
M187.467499,46.875580 
	C187.128708,45.327454 187.131027,43.622776 187.210876,41.497681 
	C188.592041,42.853642 187.916534,44.812504 187.467499,46.875580 
z"/>
</svg>